<svg id="Layer_1" data-name="Layer 1" xmlns="http://www.w3.org/2000/svg" viewBox="0 0 353.16 136.13"><title>JIPSI White Logo</title><path d="M226.84,55.64V40.92c7-1.42,11.14-6,11.14-12.88,0-6.67-3.85-11-11.14-12V1.84c9.23.5,16,2.67,20.81,6.49a24.13,24.13,0,0,1,8.81,19.1c0,8.2-2.69,15-7.59,19.58-5.44,5.13-13.11,7.93-22,8.63ZM265.15,81c4.65,2.57,14,5.14,23.38,5.14,22.65,0,33.3-11.87,33.3-25.7,0-11.63-6.86-19.22-21.43-24.61-10.64-4-15.3-6.36-15.3-11.63,0-4.28,3.92-7.95,12-7.95a39.27,39.27,0,0,1,17.26,3.91l4.16-15c-4.9-2.21-11.75-4-21-4-19.47,0-31.22,10.65-31.22,24.72,0,12,8.94,19.59,22.65,24.36,9.91,3.55,13.83,6.49,13.83,11.63,0,5.39-4.53,8.94-13.1,8.94A47.57,47.57,0,0,1,269,65.62L265.15,81ZM334.43,2.33v82.5h18.73V2.33ZM128.18,54.23c0,12.86-4.9,16.4-12.73,16.4a30.93,30.93,0,0,1-9.55-1.46l-2.08,15a48.34,48.34,0,0,0,13.59,2c18.11,0,29.37-8.2,29.37-31.7V2.33h-18.6v51.9ZM226.84,1.84V16a26.51,26.51,0,0,0-3.67-.24,40.5,40.5,0,0,0-7.47.61V41a38.67,38.67,0,0,0,6.24.37,25.1,25.1,0,0,0,4.9-.46V55.64q-2.28.18-4.65.18c-2.57,0-4.78-.24-6.49-.36V84.83H197.22V3.43a154.85,154.85,0,0,1,25.21-1.71q2.3,0,4.41.12Zm-64.51.49v82.5h18.73V2.33Z" style="fill:#fff;fill-rule:evenodd"/><path d="M12.63,19c5.36,1.74,10.26,4.53,15.46,6.79,6.23,2.7,9.54,5.28,9.37,13.27-3.71-1.37-8.78-5.61-12.13-7.89-4-2.75-12.89-7.11-12.7-12.17Zm23,23.73c-.65,2.32-4.31,10.13-7.43,16-1.39,2.61-4.17,7-6,11.11C17.82,79.93,25,83,30.06,77.42a44.31,44.31,0,0,0,3.07-4.17C35.57,69.63,44.65,56.1,46.75,56c3-.12,10.15,12.24,11.8,14.45,1.26,1.69,3.25,5.05,5.63,7.33,5.6,5.37,10.8,1.51,7.67-6.69-1.55-4.07-4.23-8.38-5.52-11C64,55.26,59.42,47.27,58,42.73a27.57,27.57,0,0,1,3.88-2.66l12.3-8.8c3.9-2.67,15-8.72,8.6-15.22-5.17-1.36-15.48,5-20.09,7.09-7.12,3.16-10.64,7.09-10,15.49,1.74,10.22,12.42,24.43,16.13,34.7,2.09,5.77-2.42,3.27-5.12-1.48-1.48-2.16-2.53-3.95-4.22-6.33-10.45-14.64-11.6-18.77-21.59-5.27-3,4.11-5.79,8.38-8.63,12.41C25.93,76.73,22.14,79,25.76,72c3.28-6.31,7.93-15.15,10.76-21.6a4.94,4.94,0,0,1,.53-1.24h0c2.06-4.88,4.35-9.68,3.61-15.31h0c-1.08-6.18-5.33-8.77-12.13-11.75C25.19,20.63,6.56,9.47,9,21c1.27,6.82,21.11,17.07,26.6,21.72Zm20.58-3.89c-.29-8,3.2-10.24,9.32-13,4-1.77,11.79-6.13,15.55-6.65.1,3.92-2.36,4.46-4.82,6.21s-4.06,2.7-6.58,4.61C67.39,31.81,58.61,38.46,56.22,38.84Z" style="fill:#fff;fill-rule:evenodd"/><path d="M45,9c-10.31,3.21-5.56,16.91,4,14.39,3.43-.9,6.22-5.09,5-9.57A7.14,7.14,0,0,0,45,9Z" style="fill:#f5851f;fill-rule:evenodd"/><path d="M45.8,27c-5.77,1.8-3.11,9.48,2.26,8.07a4.35,4.35,0,0,0,2.79-5.37A4,4,0,0,0,45.8,27Z" style="fill:#f5851f;fill-rule:evenodd"/><path d="M46.16,37.84A2.7,2.7,0,1,0,47.61,43a2.8,2.8,0,0,0,1.79-3.45A2.57,2.57,0,0,0,46.16,37.84Z" style="fill:#f5851f;fill-rule:evenodd"/><path d="M46.21,45.56a2.47,2.47,0,1,0,1.33,4.76,2.57,2.57,0,0,0,1.65-3.17A2.36,2.36,0,0,0,46.21,45.56Z" style="fill:#f5851f;fill-rule:evenodd"/><path d="M17.76,73.39c-.33-.31-.65-.63-1-1A42.28,42.28,0,0,1,5.71,53.09a5.9,5.9,0,0,0,1.68-.19,4.06,4.06,0,0,0,1.46-.75,39.14,39.14,0,0,0,9.89,17.61,19,19,0,0,0-1,3.63ZM4.39,43.94q0-.75,0-1.5A42.35,42.35,0,0,1,7.8,25.68a23,23,0,0,0,2.42,2.76,38.9,38.9,0,0,0-2.58,14c0,.46,0,.92,0,1.38a4.44,4.44,0,0,0-2.82,0Z" style="fill:#f5851f;fill-rule:evenodd"/><path d="M63.49,81.47a42.41,42.41,0,0,1-12.8,3.23,5.06,5.06,0,0,0,.86-3.39A38.85,38.85,0,0,0,60.82,79c.35.39.71.77,1.09,1.13a15.7,15.7,0,0,0,1.58,1.33ZM42.93,84.7a42,42,0,0,1-12.64-3.16,13.15,13.15,0,0,0,2.17-1.91c.16-.17.32-.35.48-.55a39,39,0,0,0,9.12,2.23A4.88,4.88,0,0,0,42.93,84.7Z" style="fill:#f5851f;fill-rule:evenodd"/><path d="M85.93,26a42.31,42.31,0,0,1,3.31,16.45v.21a5.57,5.57,0,0,0-3.19,0l-.08,0v-.2a39.25,39.25,0,0,0-2.5-13.81l.75-.71A19.33,19.33,0,0,0,85.93,26Zm1.63,28.27A42.28,42.28,0,0,1,76.81,72.44c-.31.32-.63.62-1,.92a17.77,17.77,0,0,0-1-3.43l-.07-.16A39.18,39.18,0,0,0,84.38,53.5,5.82,5.82,0,0,0,87.56,54.26Z" style="fill:#f5851f;fill-rule:evenodd"/><path d="M46.8,0a42.31,42.31,0,0,1,30,12.43l.67.69,0,0h-.11l0,0-.11,0-.06,0h0l-.06,0-.1,0h-.06l0,0h-.06l0,0-.11,0H76.5l0,0h-.06l-.16.05-.06,0,0,0h-.06l-.11,0h0l-.06,0,0,0h-.06l-.11,0-.05,0h-.06l-.05,0h0l-.1,0-.06,0-.05,0h-.06l-.05,0-.12,0-.05,0-.06,0-.05,0-.17.06h-.05l-.06,0-.17.06-.05,0-.06,0-.05,0-.17.07-.06,0-.05,0a39.17,39.17,0,0,0-54.38,0l-.06,0-.05,0-.11,0-.06,0-.05,0-.06,0-.05,0L19,14.06l0,0-.06,0-.05,0h0l-.06,0-.05,0-.06,0h-.05l-.11,0-.06,0-.05,0-.06,0-.05,0-.1,0H18l-.05,0-.06,0-.11,0h-.05l-.16-.05h-.06l-.06,0,0,0-.11,0,0,0h-.06l0,0L17,13.41h-.07l-.25-.07h0l-.25-.07h-.06l-.27-.08.71-.72A42.31,42.31,0,0,1,46.8,0Z" style="fill:#f5851f;fill-rule:evenodd"/><path d="M45.8,27c-5.77,1.8-3.11,9.48,2.26,8.07a4.35,4.35,0,0,0,2.79-5.37A4,4,0,0,0,45.8,27Z" style="fill:#f5851f;fill-rule:evenodd"/><path d="M5.19,44.91a3.65,3.65,0,0,0-2.81,2.87,3.52,3.52,0,0,0,.12,1.51,3.62,3.62,0,0,0,4.59,2.47h0a3.28,3.28,0,0,0,1.92-1.6,3.84,3.84,0,0,0,.37-2.93l0-.15a3.34,3.34,0,0,0-1.53-1.88,3.29,3.29,0,0,0-2.56-.32l-.1,0ZM.06,47.45a5.89,5.89,0,0,1,4.43-4.79l.18,0a5.7,5.7,0,0,1,7,3.76l.05.15h0l0,.09a6.22,6.22,0,0,1-.59,4.67A5.71,5.71,0,0,1,7.76,54l-.07,0a5.91,5.91,0,0,1-6.26-1.86A6.11,6.11,0,0,1,.25,50,5.88,5.88,0,0,1,.06,47.45Z" style="fill:#f5851f;fill-rule:evenodd"/><path d="M86.57,44.91a3.62,3.62,0,0,0-2.81,2.87,3.51,3.51,0,0,0,.11,1.51,3.94,3.94,0,0,0,.73,1.37,3.63,3.63,0,0,0,3.86,1.1h0a3.33,3.33,0,0,0,1.93-1.6,3.94,3.94,0,0,0,.37-2.93l0-.15a3.34,3.34,0,0,0-4.08-2.2l-.1,0Zm-5.14,2.54a5.89,5.89,0,0,1,4.44-4.79l.17,0a5.6,5.6,0,0,1,4.36.55A5.7,5.7,0,0,1,93,46.37l0,.15h0l0,.09a6.22,6.22,0,0,1-.6,4.67A5.71,5.71,0,0,1,89.13,54l-.07,0a5.91,5.91,0,0,1-6.26-1.86A6.26,6.26,0,0,1,81.62,50,5.88,5.88,0,0,1,81.43,47.45Z" style="fill:#f5851f;fill-rule:evenodd"/><path d="M46,78.52a3.64,3.64,0,0,0-2.81,2.87,3.67,3.67,0,0,0,.11,1.51,3.8,3.8,0,0,0,.74,1.37,3.62,3.62,0,0,0,3.86,1.1h0l0,0a3.31,3.31,0,0,0,1.92-1.6,3.93,3.93,0,0,0,.37-2.93l0-.15A3.38,3.38,0,0,0,48.7,78.8a3.29,3.29,0,0,0-2.56-.31l-.1,0ZM40.9,81.06a5.92,5.92,0,0,1,4.44-4.79l.17,0a5.63,5.63,0,0,1,4.37.55A5.72,5.72,0,0,1,52.47,80l0,.16h0l0,.08a6.26,6.26,0,0,1-.6,4.68,5.79,5.79,0,0,1-3.34,2.72h-.07a5.92,5.92,0,0,1-6.26-1.86,6.26,6.26,0,0,1-1.18-2.22A5.87,5.87,0,0,1,40.9,81.06Z" style="fill:#f5851f;fill-rule:evenodd"/><text transform="translate(25.04 127.87)" style="font-size:34.89210891723633px;fill:#fff;font-family:NewsGothicBT-BoldItalic, NewsGoth BT;font-weight:700;font-style:italic">Play . Live . <tspan x="184.92" y="0" style="letter-spacing:-0.0356427966764614em">P</tspan><tspan x="204.82" y="0" style="letter-spacing:-0.00001399403088985528em">ainf</tspan><tspan x="262.08" y="0" style="letter-spacing:0.0185560849599481em">r</tspan><tspan x="274.18" y="0" style="letter-spacing:0.00001399403088985528em">ee</tspan></text></svg>